<mxfile host="65bd71144e">
    <diagram id="tkOXFspNiBcgQVX9D70J" name="Page-1">
        <mxGraphModel dx="713" dy="1679" grid="1" gridSize="10" guides="1" tooltips="1" connect="1" arrows="1" fold="1" page="1" pageScale="1" pageWidth="850" pageHeight="1100" math="0" shadow="0">
            <root>
                <mxCell id="0"/>
                <mxCell id="1" parent="0"/>
                <mxCell id="2" value="Patient obtains device" style="shape=step;perimeter=stepPerimeter;whiteSpace=wrap;html=1;fixedSize=1;" vertex="1" parent="1">
                    <mxGeometry x="190" y="-30" width="160" height="80" as="geometry"/>
                </mxCell>
                <mxCell id="3" value="Patient sets up device" style="shape=step;perimeter=stepPerimeter;whiteSpace=wrap;html=1;fixedSize=1;shadow=0;dashed=1;" vertex="1" parent="1">
                    <mxGeometry x="350" y="-30" width="160" height="80" as="geometry"/>
                </mxCell>
                <mxCell id="4" value="Patient takes BP" style="shape=step;perimeter=stepPerimeter;whiteSpace=wrap;html=1;fixedSize=1;shadow=0;" vertex="1" parent="1">
                    <mxGeometry x="510" y="-30" width="160" height="80" as="geometry"/>
                </mxCell>
                <mxCell id="5" value="BP is recorded" style="shape=step;perimeter=stepPerimeter;whiteSpace=wrap;html=1;fixedSize=1;shadow=0;" vertex="1" parent="1">
                    <mxGeometry x="670" y="-30" width="160" height="80" as="geometry"/>
                </mxCell>
                <mxCell id="6" value="&lt;b&gt;Connected Device (no setup)&lt;/b&gt;" style="rounded=0;whiteSpace=wrap;html=1;shadow=0;" vertex="1" parent="1">
                    <mxGeometry x="20" y="140" width="140" height="70" as="geometry"/>
                </mxCell>
                <mxCell id="7" value="&lt;b&gt;Connected Device (setup required)&lt;/b&gt;" style="rounded=0;whiteSpace=wrap;html=1;shadow=0;" vertex="1" parent="1">
                    <mxGeometry x="20" y="395" width="140" height="75" as="geometry"/>
                </mxCell>
                <mxCell id="8" value="Device UDI (?)" style="rounded=0;whiteSpace=wrap;html=1;shadow=0;" vertex="1" parent="1">
                    <mxGeometry x="680" y="60" width="120" height="40" as="geometry"/>
                </mxCell>
                <mxCell id="9" value="Systolic BP" style="rounded=0;whiteSpace=wrap;html=1;shadow=0;" vertex="1" parent="1">
                    <mxGeometry x="680" y="110" width="120" height="40" as="geometry"/>
                </mxCell>
                <mxCell id="10" value="Diastolic BP" style="rounded=0;whiteSpace=wrap;html=1;shadow=0;" vertex="1" parent="1">
                    <mxGeometry x="680" y="160" width="120" height="40" as="geometry"/>
                </mxCell>
                <mxCell id="11" value="Timestamp" style="rounded=0;whiteSpace=wrap;html=1;shadow=0;" vertex="1" parent="1">
                    <mxGeometry x="680" y="210" width="120" height="40" as="geometry"/>
                </mxCell>
                <mxCell id="12" value="Device UDI (?)" style="rounded=0;whiteSpace=wrap;html=1;shadow=0;" vertex="1" parent="1">
                    <mxGeometry x="350" y="330" width="120" height="40" as="geometry"/>
                </mxCell>
                <mxCell id="13" value="Systolic BP" style="rounded=0;whiteSpace=wrap;html=1;shadow=0;" vertex="1" parent="1">
                    <mxGeometry x="680" y="330" width="120" height="40" as="geometry"/>
                </mxCell>
                <mxCell id="14" value="Diastolic BP" style="rounded=0;whiteSpace=wrap;html=1;shadow=0;" vertex="1" parent="1">
                    <mxGeometry x="680" y="380" width="120" height="40" as="geometry"/>
                </mxCell>
                <mxCell id="15" value="Timestamp" style="rounded=0;whiteSpace=wrap;html=1;shadow=0;" vertex="1" parent="1">
                    <mxGeometry x="680" y="430" width="120" height="40" as="geometry"/>
                </mxCell>
                <mxCell id="16" value="&lt;b&gt;Unconnected Device&lt;/b&gt;" style="rounded=0;whiteSpace=wrap;html=1;shadow=0;" vertex="1" parent="1">
                    <mxGeometry x="30" y="667" width="130" height="73" as="geometry"/>
                </mxCell>
                <mxCell id="17" value="Systolic BP" style="rounded=0;whiteSpace=wrap;html=1;shadow=0;fillColor=#FF9999;" vertex="1" parent="1">
                    <mxGeometry x="680" y="617" width="120" height="40" as="geometry"/>
                </mxCell>
                <mxCell id="18" value="Diastolic BP" style="rounded=0;whiteSpace=wrap;html=1;shadow=0;fillColor=#FF9999;" vertex="1" parent="1">
                    <mxGeometry x="680" y="667" width="120" height="40" as="geometry"/>
                </mxCell>
                <mxCell id="19" value="Timestamp" style="rounded=0;whiteSpace=wrap;html=1;shadow=0;" vertex="1" parent="1">
                    <mxGeometry x="680" y="767" width="120" height="40" as="geometry"/>
                </mxCell>
                <mxCell id="20" value="Measurement date/time" style="rounded=0;whiteSpace=wrap;html=1;shadow=0;fillColor=#FF9999;" vertex="1" parent="1">
                    <mxGeometry x="680" y="717" width="120" height="40" as="geometry"/>
                </mxCell>
                <mxCell id="21" value="Device make" style="rounded=0;whiteSpace=wrap;html=1;shadow=0;fillColor=#FF9999;" vertex="1" parent="1">
                    <mxGeometry x="350" y="617" width="120" height="40" as="geometry"/>
                </mxCell>
                <mxCell id="22" value="Device model" style="rounded=0;whiteSpace=wrap;html=1;shadow=0;fillColor=#FF9999;" vertex="1" parent="1">
                    <mxGeometry x="350" y="667" width="120" height="40" as="geometry"/>
                </mxCell>
                <mxCell id="23" value="Measurement setting" style="rounded=0;whiteSpace=wrap;html=1;shadow=0;fillColor=#FF9999;" vertex="1" parent="1">
                    <mxGeometry x="855" y="617" width="120" height="40" as="geometry"/>
                </mxCell>
                <mxCell id="24" value="Body site" style="rounded=0;whiteSpace=wrap;html=1;shadow=0;fillColor=#FF9999;" vertex="1" parent="1">
                    <mxGeometry x="855" y="667" width="120" height="40" as="geometry"/>
                </mxCell>
                <mxCell id="25" value="Manual data entry" style="rounded=0;whiteSpace=wrap;html=1;shadow=0;fillColor=#FF9999;" vertex="1" parent="1">
                    <mxGeometry x="30" y="-160" width="120" height="60" as="geometry"/>
                </mxCell>
                <mxCell id="26" value="Automatically generated" style="rounded=0;whiteSpace=wrap;html=1;shadow=0;" vertex="1" parent="1">
                    <mxGeometry x="30" y="-240" width="120" height="60" as="geometry"/>
                </mxCell>
                <mxCell id="27" value="Measurement setting" style="rounded=0;whiteSpace=wrap;html=1;shadow=0;fillColor=#FF9999;" vertex="1" parent="1">
                    <mxGeometry x="855" y="330" width="120" height="40" as="geometry"/>
                </mxCell>
                <mxCell id="28" value="Body site" style="rounded=0;whiteSpace=wrap;html=1;shadow=0;fillColor=#FF9999;" vertex="1" parent="1">
                    <mxGeometry x="855" y="380" width="120" height="40" as="geometry"/>
                </mxCell>
                <mxCell id="29" value="&lt;div&gt;Patient records additional information in device&lt;/div&gt;&lt;div&gt;app or portal&lt;br&gt;&lt;/div&gt;" style="shape=step;perimeter=stepPerimeter;whiteSpace=wrap;html=1;fixedSize=1;shadow=0;dashed=1;" vertex="1" parent="1">
                    <mxGeometry x="840" y="-30" width="170" height="80" as="geometry"/>
                </mxCell>
                <mxCell id="30" value="Validity indicator" style="rounded=0;whiteSpace=wrap;html=1;shadow=0;fillColor=#FF9999;" vertex="1" parent="1">
                    <mxGeometry x="855" y="430" width="120" height="40" as="geometry"/>
                </mxCell>
                <mxCell id="31" value="Validity indicator" style="rounded=0;whiteSpace=wrap;html=1;shadow=0;fillColor=#FF9999;" vertex="1" parent="1">
                    <mxGeometry x="855" y="717" width="120" height="40" as="geometry"/>
                </mxCell>
                <mxCell id="32" value="Measurement setting" style="rounded=0;whiteSpace=wrap;html=1;shadow=0;fillColor=#FF9999;" vertex="1" parent="1">
                    <mxGeometry x="855" y="60" width="120" height="40" as="geometry"/>
                </mxCell>
                <mxCell id="33" value="Body site" style="rounded=0;whiteSpace=wrap;html=1;shadow=0;fillColor=#FF9999;" vertex="1" parent="1">
                    <mxGeometry x="855" y="110" width="120" height="40" as="geometry"/>
                </mxCell>
                <mxCell id="34" value="Validity indicator" style="rounded=0;whiteSpace=wrap;html=1;shadow=0;fillColor=#FF9999;" vertex="1" parent="1">
                    <mxGeometry x="855" y="160" width="120" height="40" as="geometry"/>
                </mxCell>
                <mxCell id="35" value="" style="endArrow=none;html=1;rounded=0;" edge="1" parent="1">
                    <mxGeometry width="50" height="50" relative="1" as="geometry">
                        <mxPoint x="190" y="880" as="sourcePoint"/>
                        <mxPoint x="190" y="50" as="targetPoint"/>
                    </mxGeometry>
                </mxCell>
                <mxCell id="36" value="" style="endArrow=none;html=1;rounded=0;" edge="1" parent="1">
                    <mxGeometry width="50" height="50" relative="1" as="geometry">
                        <mxPoint x="190" y="320" as="sourcePoint"/>
                        <mxPoint x="1670" y="320" as="targetPoint"/>
                    </mxGeometry>
                </mxCell>
                <mxCell id="37" value="" style="endArrow=none;html=1;rounded=0;" edge="1" parent="1">
                    <mxGeometry width="50" height="50" relative="1" as="geometry">
                        <mxPoint x="190" y="600" as="sourcePoint"/>
                        <mxPoint x="1670" y="600" as="targetPoint"/>
                    </mxGeometry>
                </mxCell>
                <mxCell id="38" value="&lt;div&gt;Current documented information is sent to&lt;/div&gt;&lt;div&gt;&amp;nbsp;a secure online platform.&amp;nbsp;&lt;/div&gt;" style="shape=step;perimeter=stepPerimeter;whiteSpace=wrap;html=1;fixedSize=1;shadow=0;dashed=1;" vertex="1" parent="1">
                    <mxGeometry x="1010" y="-30" width="170" height="80" as="geometry"/>
                </mxCell>
                <mxCell id="39" value="Patient can review &lt;br&gt;information in Patient &lt;br&gt;collected&lt;br&gt;&amp;nbsp;Integration platform" style="shape=step;perimeter=stepPerimeter;whiteSpace=wrap;html=1;fixedSize=1;shadow=0;dashed=1;" vertex="1" parent="1">
                    <mxGeometry x="1180" y="-30" width="170" height="80" as="geometry"/>
                </mxCell>
                <mxCell id="40" value="Patient can review &lt;br&gt;information in Remote Monitoring Data Aggregation&amp;nbsp;platform" style="shape=step;perimeter=stepPerimeter;whiteSpace=wrap;html=1;fixedSize=1;shadow=0;dashed=1;" vertex="1" parent="1">
                    <mxGeometry x="1350" y="-30" width="170" height="80" as="geometry"/>
                </mxCell>
                <mxCell id="41" value="" style="endArrow=none;html=1;rounded=0;" edge="1" parent="1">
                    <mxGeometry width="50" height="50" relative="1" as="geometry">
                        <mxPoint x="330" y="880" as="sourcePoint"/>
                        <mxPoint x="330" y="50" as="targetPoint"/>
                    </mxGeometry>
                </mxCell>
                <mxCell id="42" value="" style="endArrow=none;html=1;rounded=0;" edge="1" parent="1">
                    <mxGeometry width="50" height="50" relative="1" as="geometry">
                        <mxPoint x="490" y="880" as="sourcePoint"/>
                        <mxPoint x="490" y="50" as="targetPoint"/>
                    </mxGeometry>
                </mxCell>
                <mxCell id="43" value="" style="endArrow=none;html=1;rounded=0;" edge="1" parent="1">
                    <mxGeometry width="50" height="50" relative="1" as="geometry">
                        <mxPoint x="650" y="880" as="sourcePoint"/>
                        <mxPoint x="650" y="50" as="targetPoint"/>
                    </mxGeometry>
                </mxCell>
                <mxCell id="44" value="" style="endArrow=none;html=1;rounded=0;" edge="1" parent="1">
                    <mxGeometry width="50" height="50" relative="1" as="geometry">
                        <mxPoint x="810" y="880" as="sourcePoint"/>
                        <mxPoint x="810" y="50" as="targetPoint"/>
                    </mxGeometry>
                </mxCell>
                <mxCell id="45" value="" style="endArrow=none;html=1;rounded=0;" edge="1" parent="1">
                    <mxGeometry width="50" height="50" relative="1" as="geometry">
                        <mxPoint x="989" y="880" as="sourcePoint"/>
                        <mxPoint x="989.33" y="50" as="targetPoint"/>
                    </mxGeometry>
                </mxCell>
                <mxCell id="46" value="" style="endArrow=none;html=1;rounded=0;" edge="1" parent="1">
                    <mxGeometry width="50" height="50" relative="1" as="geometry">
                        <mxPoint x="1160" y="880" as="sourcePoint"/>
                        <mxPoint x="1160" y="50" as="targetPoint"/>
                    </mxGeometry>
                </mxCell>
                <mxCell id="47" value="" style="endArrow=none;html=1;rounded=0;" edge="1" parent="1">
                    <mxGeometry width="50" height="50" relative="1" as="geometry">
                        <mxPoint x="1330" y="880" as="sourcePoint"/>
                        <mxPoint x="1330" y="50" as="targetPoint"/>
                    </mxGeometry>
                </mxCell>
                <mxCell id="48" value="" style="endArrow=none;html=1;rounded=0;" edge="1" parent="1">
                    <mxGeometry width="50" height="50" relative="1" as="geometry">
                        <mxPoint x="1500" y="880" as="sourcePoint"/>
                        <mxPoint x="1500" y="50" as="targetPoint"/>
                    </mxGeometry>
                </mxCell>
                <mxCell id="49" value="" style="endArrow=none;html=1;rounded=0;" edge="1" parent="1">
                    <mxGeometry width="50" height="50" relative="1" as="geometry">
                        <mxPoint x="190" y="880" as="sourcePoint"/>
                        <mxPoint x="1670" y="880" as="targetPoint"/>
                    </mxGeometry>
                </mxCell>
                <mxCell id="50" value="Average Systolic BP" style="rounded=0;whiteSpace=wrap;html=1;shadow=0;" vertex="1" parent="1">
                    <mxGeometry x="1360" y="60" width="120" height="27.5" as="geometry"/>
                </mxCell>
                <mxCell id="51" value="Average Diastolic BP" style="rounded=0;whiteSpace=wrap;html=1;shadow=0;" vertex="1" parent="1">
                    <mxGeometry x="1360" y="90" width="120" height="27.5" as="geometry"/>
                </mxCell>
                <mxCell id="52" value="Number of Measurements" style="rounded=0;whiteSpace=wrap;html=1;shadow=0;" vertex="1" parent="1">
                    <mxGeometry x="1360" y="127.5" width="120" height="32.5" as="geometry"/>
                </mxCell>
                <mxCell id="53" value="Date Range" style="rounded=0;whiteSpace=wrap;html=1;shadow=0;" vertex="1" parent="1">
                    <mxGeometry x="1360" y="170" width="120" height="20" as="geometry"/>
                </mxCell>
                <mxCell id="54" value="Min Systolic BP" style="rounded=0;whiteSpace=wrap;html=1;shadow=0;" vertex="1" parent="1">
                    <mxGeometry x="1360" y="200" width="120" height="20" as="geometry"/>
                </mxCell>
                <mxCell id="55" value="Min Diastolic BP" style="rounded=0;whiteSpace=wrap;html=1;shadow=0;" vertex="1" parent="1">
                    <mxGeometry x="1360" y="230" width="120" height="20" as="geometry"/>
                </mxCell>
                <mxCell id="56" value="Max Systolic BP" style="rounded=0;whiteSpace=wrap;html=1;shadow=0;" vertex="1" parent="1">
                    <mxGeometry x="1360" y="290" width="120" height="25" as="geometry"/>
                </mxCell>
                <mxCell id="57" value="Min Diastolic BP" style="rounded=0;whiteSpace=wrap;html=1;shadow=0;" vertex="1" parent="1">
                    <mxGeometry x="1360" y="255" width="120" height="25" as="geometry"/>
                </mxCell>
                <mxCell id="58" value="Average Systolic BP" style="rounded=0;whiteSpace=wrap;html=1;shadow=0;" vertex="1" parent="1">
                    <mxGeometry x="1360" y="330" width="120" height="27.5" as="geometry"/>
                </mxCell>
                <mxCell id="59" value="Average Diastolic BP" style="rounded=0;whiteSpace=wrap;html=1;shadow=0;" vertex="1" parent="1">
                    <mxGeometry x="1360" y="360" width="120" height="27.5" as="geometry"/>
                </mxCell>
                <mxCell id="60" value="Number of Measurements" style="rounded=0;whiteSpace=wrap;html=1;shadow=0;" vertex="1" parent="1">
                    <mxGeometry x="1360" y="397.5" width="120" height="32.5" as="geometry"/>
                </mxCell>
                <mxCell id="61" value="Date Range" style="rounded=0;whiteSpace=wrap;html=1;shadow=0;" vertex="1" parent="1">
                    <mxGeometry x="1360" y="440" width="120" height="20" as="geometry"/>
                </mxCell>
                <mxCell id="62" value="Min Systolic BP" style="rounded=0;whiteSpace=wrap;html=1;shadow=0;" vertex="1" parent="1">
                    <mxGeometry x="1360" y="470" width="120" height="20" as="geometry"/>
                </mxCell>
                <mxCell id="63" value="Min Diastolic BP" style="rounded=0;whiteSpace=wrap;html=1;shadow=0;" vertex="1" parent="1">
                    <mxGeometry x="1360" y="500" width="120" height="20" as="geometry"/>
                </mxCell>
                <mxCell id="64" value="Max Systolic BP" style="rounded=0;whiteSpace=wrap;html=1;shadow=0;" vertex="1" parent="1">
                    <mxGeometry x="1360" y="560" width="120" height="25" as="geometry"/>
                </mxCell>
                <mxCell id="65" value="Min Diastolic BP" style="rounded=0;whiteSpace=wrap;html=1;shadow=0;" vertex="1" parent="1">
                    <mxGeometry x="1360" y="525" width="120" height="25" as="geometry"/>
                </mxCell>
                <mxCell id="66" value="Average Systolic BP" style="rounded=0;whiteSpace=wrap;html=1;shadow=0;" vertex="1" parent="1">
                    <mxGeometry x="1350" y="609.5" width="120" height="27.5" as="geometry"/>
                </mxCell>
                <mxCell id="67" value="Average Diastolic BP" style="rounded=0;whiteSpace=wrap;html=1;shadow=0;" vertex="1" parent="1">
                    <mxGeometry x="1350" y="639.5" width="120" height="27.5" as="geometry"/>
                </mxCell>
                <mxCell id="68" value="Number of Measurements" style="rounded=0;whiteSpace=wrap;html=1;shadow=0;" vertex="1" parent="1">
                    <mxGeometry x="1350" y="677" width="120" height="32.5" as="geometry"/>
                </mxCell>
                <mxCell id="69" value="Date Range" style="rounded=0;whiteSpace=wrap;html=1;shadow=0;" vertex="1" parent="1">
                    <mxGeometry x="1350" y="719.5" width="120" height="20" as="geometry"/>
                </mxCell>
                <mxCell id="70" value="Min Systolic BP" style="rounded=0;whiteSpace=wrap;html=1;shadow=0;" vertex="1" parent="1">
                    <mxGeometry x="1350" y="749.5" width="120" height="20" as="geometry"/>
                </mxCell>
                <mxCell id="71" value="Min Diastolic BP" style="rounded=0;whiteSpace=wrap;html=1;shadow=0;" vertex="1" parent="1">
                    <mxGeometry x="1350" y="779.5" width="120" height="20" as="geometry"/>
                </mxCell>
                <mxCell id="72" value="Max Systolic BP" style="rounded=0;whiteSpace=wrap;html=1;shadow=0;" vertex="1" parent="1">
                    <mxGeometry x="1350" y="839.5" width="120" height="25" as="geometry"/>
                </mxCell>
                <mxCell id="73" value="Min Diastolic BP" style="rounded=0;whiteSpace=wrap;html=1;shadow=0;" vertex="1" parent="1">
                    <mxGeometry x="1350" y="804.5" width="120" height="25" as="geometry"/>
                </mxCell>
                <mxCell id="74" value="Patient can review &lt;br&gt;and adjust information in Patient Portal" style="shape=step;perimeter=stepPerimeter;whiteSpace=wrap;html=1;fixedSize=1;shadow=0;dashed=1;" vertex="1" parent="1">
                    <mxGeometry x="1520" y="-30" width="170" height="80" as="geometry"/>
                </mxCell>
                <mxCell id="75" value="" style="endArrow=none;html=1;rounded=0;" edge="1" parent="1">
                    <mxGeometry width="50" height="50" relative="1" as="geometry">
                        <mxPoint x="1670" y="880" as="sourcePoint"/>
                        <mxPoint x="1670" y="50" as="targetPoint"/>
                    </mxGeometry>
                </mxCell>
                <mxCell id="76" value="Standard&lt;br&gt;&amp;nbsp;in workflow" style="shape=step;perimeter=stepPerimeter;whiteSpace=wrap;html=1;fixedSize=1;" vertex="1" parent="1">
                    <mxGeometry x="190" y="-240" width="100" height="60" as="geometry"/>
                </mxCell>
                <mxCell id="77" value="Variable in &lt;br&gt;workflow" style="shape=step;perimeter=stepPerimeter;whiteSpace=wrap;html=1;fixedSize=1;shadow=0;dashed=1;" vertex="1" parent="1">
                    <mxGeometry x="190" y="-160" width="110" height="50" as="geometry"/>
                </mxCell>
                <mxCell id="78" value="&lt;b&gt;&lt;font style=&quot;font-size: 18px;&quot;&gt;KEY:&lt;/font&gt;&lt;/b&gt;" style="text;html=1;strokeColor=none;fillColor=none;align=center;verticalAlign=middle;whiteSpace=wrap;rounded=0;shadow=1;dashed=1;" vertex="1" parent="1">
                    <mxGeometry x="140" y="-280" width="60" height="30" as="geometry"/>
                </mxCell>
            </root>
        </mxGraphModel>
    </diagram>
</mxfile>